<svg width="18" height="20" viewBox="0 0 18 20" fill="none" xmlns="http://www.w3.org/2000/svg">
<path d="M15.2484 13.2291C14.0841 12.0348 12.5902 11.2148 10.9576 10.8736C9.32495 10.5325 7.62768 10.6858 6.08258 11.3139C4.53749 11.9421 3.21471 13.0165 2.28321 14.4001C1.35171 15.7836 0.853781 17.4134 0.853027 19.0813C0.853027 19.2945 0.937733 19.499 1.08851 19.6498C1.23929 19.8006 1.44378 19.8853 1.65702 19.8853H16.8202C17.0335 19.8853 17.238 19.8006 17.3887 19.6498C17.5395 19.499 17.6242 19.2945 17.6242 19.0813C17.6273 18.2288 17.4957 17.3811 17.2343 16.5697C16.845 15.3151 16.1645 14.1704 15.2484 13.2291V13.2291Z" fill="#141414"/>
<path d="M9.23761 9.43372C10.1464 9.43372 11.0348 9.16422 11.7904 8.65931C12.5461 8.15439 13.135 7.43673 13.4827 6.5971C13.8305 5.75746 13.9214 4.83356 13.7441 3.94224C13.5667 3.05091 13.129 2.2322 12.4863 1.58964C11.8437 0.94708 11.0249 0.509533 10.1335 0.332332C9.24216 0.155132 8.31828 0.246239 7.47871 0.594131C6.63913 0.942023 5.92158 1.53107 5.41679 2.28679C4.91201 3.0425 4.64266 3.93094 4.64282 4.83974C4.6441 6.05789 5.12863 7.22576 5.99006 8.08705C6.8515 8.94834 8.01946 9.43266 9.23761 9.43372V9.43372Z" fill="#141414"/>
</svg>
